HIERARCHY
ROOT Hips
{
	OFFSET -3.958830 18.904000 13.208200
	CHANNELS 6 Xposition Yposition Zposition Zrotation Yrotation Xrotation 
	JOINT LHipJoint
	{
		OFFSET 0.000000 0.000000 0.000000
		CHANNELS 3 Zrotation Yrotation Xrotation
		JOINT LeftUpLeg
		{
			OFFSET 1.800000 -1.400000 0.085000
			CHANNELS 3 Zrotation Yrotation Xrotation
			JOINT LeftLeg
			{
				OFFSET 2.215000 -6.000000 0.000000
				CHANNELS 3 Zrotation Yrotation Xrotation
				JOINT LeftFoot
				{
					OFFSET 2.500000 -6.900000 0.000000
					CHANNELS 3 Zrotation Yrotation Xrotation
					JOINT LeftToeBase
					{
						OFFSET 0.200000 -0.500000 1.950000
						CHANNELS 3 Zrotation Yrotation Xrotation
						End Site
						{
							OFFSET 0.000000 0.000000 0.000000
						}
					}
				}
			}
		}
	}
	JOINT RHipJoint
	{
		OFFSET 0.000000 0.000000 0.000000
		CHANNELS 3 Zrotation Yrotation Xrotation
		JOINT RightUpLeg
		{
			OFFSET -1.800000 -1.400000 0.085000
			CHANNELS 3 Zrotation Yrotation Xrotation
			JOINT RightLeg
			{
				OFFSET -2.215000 -6.000000 0.000000
				CHANNELS 3 Zrotation Yrotation Xrotation
				JOINT RightFoot
				{
					OFFSET -2.500000 -6.900000 0.000000
					CHANNELS 3 Zrotation Yrotation Xrotation
					JOINT RightToeBase
					{
						OFFSET -0.200000 -0.500000 1.950000
						CHANNELS 3 Zrotation Yrotation Xrotation
						End Site
						{
							OFFSET 0.000000 0.000000 0.000000
						}
					}
				}
			}
		}
	}
	JOINT LowerBack
	{
		OFFSET 0.000000 0.000000 0.000000
		CHANNELS 3 Zrotation Yrotation Xrotation
		JOINT Spine
		{
			OFFSET -0.087000 1.940000 -0.288900
			CHANNELS 3 Zrotation Yrotation Xrotation
			JOINT Spine1
			{
				OFFSET 0.000000 1.950000 0.060000
				CHANNELS 3 Zrotation Yrotation Xrotation
				JOINT Neck
				{
					OFFSET 0.000000 0.000000 0.000000
					CHANNELS 3 Zrotation Yrotation Xrotation
					JOINT Neck1
					{
						OFFSET 0.000000 1.600000 0.340000
						CHANNELS 3 Zrotation Yrotation Xrotation
						JOINT Head
						{
							OFFSET 0.000000 1.667000 -0.240000
							CHANNELS 3 Zrotation Yrotation Xrotation
							End Site
							{
								OFFSET 0.000000 0.000000 0.000000
							}
						}
					}
				}
				JOINT LeftShoulder
				{
					OFFSET 0.000000 0.000000 0.000000
					CHANNELS 3 Zrotation Yrotation Xrotation
					JOINT LeftArm
					{
						OFFSET 2.700000 1.550000 -0.730000
						CHANNELS 3 Zrotation Yrotation Xrotation
						JOINT LeftForeArm
						{
							OFFSET 5.450000 0.000000 0.000000
							CHANNELS 3 Zrotation Yrotation Xrotation
							JOINT LeftHand
							{
								OFFSET 3.450000 0.000000 0.000000
								CHANNELS 3 Zrotation Yrotation Xrotation
								JOINT LeftHandIndex1
								{
									OFFSET 0.750000 0.000000 0.000000
									CHANNELS 3 Zrotation Yrotation Xrotation
									End Site
									{
										OFFSET 0.000000 0.000000 0.000000
									}
								}
							}
						}
					}
				}
				JOINT RightShoulder
				{
					OFFSET 0.000000 0.000000 0.000000
					CHANNELS 3 Zrotation Yrotation Xrotation
					JOINT RightArm
					{
						OFFSET -2.700000 1.550000 -0.730000
						CHANNELS 3 Zrotation Yrotation Xrotation
						JOINT RightForeArm
						{
							OFFSET -5.450000 0.000000 0.000000
							CHANNELS 3 Zrotation Yrotation Xrotation
							JOINT RightHand
							{
								OFFSET -3.450000 0.000000 0.000000
								CHANNELS 3 Zrotation Yrotation Xrotation
								JOINT RightHandIndex1
								{
									OFFSET -0.750000 0.000000 0.000000
									CHANNELS 3 Zrotation Yrotation Xrotation
									End Site
									{
										OFFSET 0.000000 0.000000 0.000000
									}
								}
							}
						}
					}
				}
			}
		}
	}
}
MOTION
Frames: 10
Frame Time: 0.016667
-2.313700 18.053200 -1.337840 8.498237 -18.927111 -9.709325 -15.819928 10.889219 6.085423 17.944185 -3.381488 -34.161700 -52.931092 41.262866 42.280274 2.514657 14.335468 0.101080 0.397170 0.341450 0.054410 17.956302 -9.660844 1.407464 -15.315988 -0.060237 -4.896179 4.228824 -4.563574 8.683391 -0.314882 -3.756875 3.184445 0.183360 0.267870 0.024630 -2.268980 -1.437370 -8.375698 -13.924129 8.435438 19.469704 3.771900 8.532997 13.371940 1.401818 -2.555365 -14.051675 -4.374675 -7.856400 28.814757 10.123460 -11.468050 -18.332400 -0.370172 -20.259549 7.375545 -17.813967 -8.742774 -9.927572 104.342154 -41.944284 -59.417424 -3.339593 2.862762 0.320920 -0.057280 -0.017910 0.302660 -1.509375 30.534053 8.239861 -6.270328 16.599693 -15.524564 -83.971038 48.556406 -42.817111 2.134291 -1.140692 -0.097420 0.343410 -0.083460 0.071830 
-2.362930 17.974510 -1.337700 8.840245 -19.834791 -10.127992 -15.812722 10.877095 6.042053 17.731846 -3.163023 -34.459299 -53.000229 39.140108 39.978574 2.379109 13.970311 0.196974 0.366030 0.298530 0.072690 17.963667 -9.703153 1.448603 -14.947786 -0.119072 -3.958600 3.719688 -4.468731 8.107882 -0.317876 -3.785458 3.202763 0.172800 0.273910 -0.014140 -2.288557 -1.340984 -8.373924 -13.972160 8.652766 19.404395 3.107656 8.973963 13.687757 1.672549 -2.524007 -14.301874 -4.342401 -8.388692 29.399577 8.806420 -11.654510 -17.935980 -0.995044 -20.842403 7.335392 -17.877954 -8.514231 -10.512397 102.916884 -40.425305 -56.365788 -3.354265 2.811411 0.335900 -0.052440 -0.031670 0.283630 -1.357018 31.422039 8.601473 -5.174514 16.544166 -16.191192 -82.509800 46.720963 -40.728008 2.222781 -1.205943 -0.141690 0.387660 -0.075040 0.048130 
-2.447120 17.805480 -1.319550 9.308463 -20.486003 -9.452202 -15.804102 10.770962 6.112107 16.839963 -3.601259 -36.903537 -51.646908 37.385077 39.362509 2.302011 13.773782 0.231400 0.331700 0.275670 0.016140 17.985834 -9.725981 1.458331 -14.553246 -0.022603 -3.575259 3.387034 -4.401719 7.942722 -0.289030 -3.837409 3.206308 0.165470 0.295040 -0.019850 -2.349153 -1.192604 -8.390449 -14.020830 8.619946 18.138201 2.701157 8.971975 13.744579 1.652884 -3.074763 -14.629618 -5.119446 -8.004493 29.177685 7.778970 -11.762770 -15.947610 -1.778458 -21.537580 7.653043 -19.764332 -7.934575 -11.202666 101.389524 -38.059621 -52.497536 -3.396173 2.890212 0.288530 -0.020330 -0.075270 0.280820 -0.409501 32.606406 8.786054 -3.634035 17.809713 -16.414861 -80.416933 43.630681 -37.566325 2.292251 -1.341649 -0.139020 0.367950 -0.049670 0.059570 
-2.525630 17.661120 -1.322700 8.390249 -21.395067 -11.116981 -15.732100 10.769427 6.169560 17.029175 -3.555032 -37.021691 -50.770966 35.143753 38.091129 2.213387 13.385787 0.309625 0.326310 0.283380 0.016490 18.024568 -9.929900 1.524680 -13.267640 -0.338831 -0.656297 3.187313 -4.780821 9.619359 -0.388558 -4.044192 3.146849 0.142360 0.252810 -0.042600 -2.477275 -0.944541 -8.572303 -11.092613 8.059350 21.708649 0.382085 9.547098 13.495012 1.835294 -3.889155 -14.795335 -6.675842 -7.831151 30.706145 10.123160 -12.127440 -18.818370 -4.352569 -23.038589 7.737211 -18.017451 -6.705467 -12.710206 99.513700 -36.799197 -49.662520 -3.359288 2.868578 0.339830 -0.086680 -0.022570 0.272700 1.904494 35.104344 8.920812 -2.907749 18.294282 -18.142932 -78.484986 41.096621 -34.677663 2.473368 -1.366968 -0.129570 0.383050 -0.057790 0.064940 
-2.612270 17.482090 -1.293740 7.532843 -22.452397 -12.183014 -15.627045 10.692535 6.176958 16.679088 -3.454899 -37.323939 -50.163199 32.969437 36.483485 2.084616 13.003632 0.373653 0.355650 0.293840 0.027330 18.097781 -10.145677 1.641657 -12.064016 -0.541536 2.003817 3.064194 -5.115033 11.017945 -0.485153 -4.321329 3.025684 0.143860 0.224100 -0.021610 -2.728716 -0.500685 -8.700186 -7.855469 7.196544 23.960910 -1.923689 9.968365 13.607768 2.113364 -4.927157 -14.853039 -8.188693 -7.863789 30.927296 11.840830 -12.845940 -20.721750 -6.539306 -23.953541 7.748462 -17.409456 -5.129132 -13.969331 96.956976 -35.346202 -46.217034 -3.356178 2.947071 0.368960 -0.128720 -0.004030 0.265190 3.647200 37.282706 8.782726 -2.933849 18.678000 -19.699609 -74.955529 39.097493 -31.193500 2.648672 -1.455023 -0.108000 0.358020 -0.051200 0.064350 
-2.682710 17.297580 -1.262290 5.974537 -24.194598 -12.968153 -15.493287 10.667024 6.111734 16.074396 -3.338225 -37.348068 -47.457691 30.092629 35.242611 1.855705 12.495665 0.482758 0.387780 0.335040 0.034120 18.181649 -10.447308 1.744103 -10.757925 -0.537122 3.662149 3.554315 -5.686006 14.367482 -0.558668 -4.649274 2.906909 0.189640 0.237790 -0.039850 -3.040200 0.048134 -8.770716 -3.644305 6.132932 25.622569 -4.271140 10.514289 14.743580 2.771680 -5.664012 -15.190550 -8.842059 -7.844341 30.565168 12.254650 -12.960950 -21.914300 -8.258755 -25.542040 7.781955 -16.641543 -4.510940 -15.266109 94.327936 -33.522299 -42.875265 -3.392818 2.978657 0.382970 -0.137540 -0.007710 0.277930 4.263710 40.088448 8.588798 -2.641931 17.860148 -22.348549 -71.551157 37.224039 -28.127566 2.892956 -1.548230 -0.129130 0.403910 -0.052320 0.066060 
-2.791090 17.115480 -1.210470 4.409341 -27.540664 -13.908975 -15.345875 10.808794 5.791311 15.303297 -2.127237 -35.450892 -43.239055 27.060526 33.595643 1.578512 11.777143 0.661395 0.407940 0.380830 0.008880 18.244186 -10.837311 1.913761 -9.303984 -0.288978 5.169826 3.527333 -6.122650 18.184240 -0.631154 -5.052755 2.778044 0.241770 0.285280 -0.049380 -3.343445 0.668195 -8.773480 0.219057 5.736873 26.133670 -5.867149 11.919644 17.537890 3.677216 -6.920584 -16.586280 -9.767914 -7.676298 29.996753 11.509630 -13.013420 -21.282110 -8.576708 -27.948743 8.156253 -15.868830 -2.973665 -17.214634 92.913106 -32.665175 -41.972765 -3.482269 3.038503 0.352960 -0.107670 -0.031220 0.309140 3.642050 45.139957 8.221671 -2.431407 14.481489 -28.502421 -67.882040 37.905542 -25.480245 3.476584 -1.681432 -0.143520 0.452040 -0.050670 0.088750 
-2.890830 16.916810 -1.161520 3.085220 -28.601648 -12.672232 -15.224142 10.652823 5.722803 14.132013 -2.324236 -37.058480 -40.287277 24.938069 32.860662 1.317285 11.336036 0.784700 0.428990 0.422640 -0.043420 18.352578 -11.087626 2.013440 -7.440835 0.013634 4.989578 3.120139 -6.168179 21.086257 -0.625137 -5.301321 2.691886 0.335020 0.399360 -0.066890 -3.758121 1.351218 -8.874786 3.768485 4.422330 23.962614 -7.149387 11.791515 20.578974 4.314840 -8.975783 -17.234307 -11.724415 -7.060737 27.971327 10.621400 -13.525950 -19.560390 -7.785331 -29.932642 8.822234 -18.456781 -2.486213 -18.867042 92.299210 -28.945296 -39.464046 -3.620700 3.159471 0.272440 -0.033940 -0.126180 0.343670 2.566126 49.548149 6.663258 -1.828820 14.366354 -32.841053 -64.817674 37.526593 -23.124987 3.762337 -1.726303 -0.184690 0.533310 -0.015270 0.121650 
-2.943520 16.765160 -1.119560 1.626447 -28.528527 -12.266397 -15.044960 10.698119 5.553884 11.550025 -3.415644 -37.464741 -36.417234 22.365013 32.706911 1.114984 10.643481 0.993315 0.433910 0.426490 -0.085670 18.480714 -11.315289 2.191497 -5.597123 -0.064998 5.582247 2.010598 -5.986060 22.803080 -0.679415 -5.419352 2.650943 0.334550 0.419310 -0.071230 -4.225814 1.622032 -8.919415 8.257441 2.780352 24.425013 -8.576671 11.058852 21.644673 4.678698 -11.661029 -17.981409 -16.101726 -7.569474 27.792334 11.866230 -15.603290 -20.856970 -8.313947 -30.879724 9.115865 -21.362452 -4.872330 -19.378846 88.599548 -26.142272 -35.658022 -3.628850 3.213379 0.267360 -0.059090 -0.134610 0.365750 2.805373 51.900707 6.475041 -2.493198 13.295841 -34.452523 -62.533697 35.889784 -21.042414 3.831392 -1.745093 -0.171670 0.556710 -0.003320 0.158270 
-3.039920 16.599140 -1.058730 -0.479226 -27.862747 -11.200071 -15.001791 10.775716 5.520569 10.596404 -3.867176 -37.378005 -36.128069 20.314083 30.113387 1.021617 9.948835 1.214469 0.386590 0.362610 -0.061410 18.509912 -11.244699 2.372155 -3.404938 -0.210274 6.222734 3.029751 -6.488661 24.446411 -0.761015 -5.580801 2.607155 0.254940 0.357160 -0.073210 -4.282767 1.421164 -8.930957 11.012106 2.250791 25.153790 -8.806711 10.263050 18.815494 4.663089 -11.254658 -17.672266 -16.782063 -8.485358 29.352556 10.726600 -16.309630 -21.410180 -11.976848 -29.750456 8.748738 -19.678308 -5.835295 -17.120373 81.714448 -28.231451 -31.827988 -3.569204 3.091801 0.303350 -0.097600 -0.085460 0.336160 5.678056 49.003979 7.762744 -2.524115 15.106112 -29.162213 -61.652025 30.680174 -19.335203 3.407175 -1.678651 -0.155510 0.526610 -0.015390 0.142880 
